<!-- <svg xmlns="http://www.w3.org/2000/svg" fill="#e5e5e6" viewBox="0 0 512 512"><path d="M241.24 303.94c-15.32-10.36-30.74-20.57-46.06-30.93-2-1.38-3.43-1.48-5.5 0L150.8 299.13C182 319.9 244 361.32 244 361.32V307.53C244 306.31 242.45 304.75 241.24 303.94zM195.09 240.67q23.19-15.24 46.11-30.86a7.54 7.54 0 002.8-5.34v-51.7s-62 41.12-93.26 61.94c13.7 9.16 26.67 17.91 39.78 26.44C191.54 241.81 193.92 241.43 195.09 240.67zM269.84 209.35q23.71 16.07 47.63 31.82a4.3 4.3 0 003.83 0l39.76-26.47L268 152.48v53.35A4.79 4.79 0 00269.84 209.35zM258.11 230.37a5.27 5.27 0 00-4.74.17c-4.82 3-9.47 6.2-14.17 9.35-8.25 5.53-25.35 17-25.35 17l38.84 25.86a6.18 6.18 0 006.26.11l39-26S263.88 234.2 258.11 230.37zM141 237.12L141 276.73 170.62 256.89 141 237.12z"/><path d="M256,32C132.29,32,32,132.29,32,256S132.29,480,256,480,480,379.71,480,256,379.71,32,256,32ZM395,297c0,5.78-2.65,9.86-7.51,13.09q-61.71,41-123.29,82.19c-5.85,3.92-11.17,3.75-17-.14q-61.17-41-122.63-81.67c-5.11-3.39-7.59-7.56-7.59-13.73V217c0-6.14,2.52-10.34,7.62-13.72,40.91-27.13,81.94-54.36,122.73-81.68,5.82-3.89,11.09-4,16.94-.09q61.54,41.21,123.26,82.19c4.68,3.11,7.45,6.95,7.45,12.66Z"/><path d="M316.25 273.23q-22.59 15.34-45.39 30.34c-2.41 1.58-2.89 3.31-2.86 6.19V361.1l93-62-38.53-25.88C320.17 271.61 318.58 271.65 316.25 273.23zM370 276.68L370 237.06 340.41 256.93 370 276.68z"/></svg> -->
<svg xmlns="http://www.w3.org/2000/svg" width="16" height="16" fill="currentColor" class="bi bi-instagram" viewBox="0 0 16 16">
  <path d="M8 0C5.829 0 5.556.01 4.703.048 3.85.088 3.269.222 2.76.42a3.9 3.9 0 0 0-1.417.923A3.9 3.9 0 0 0 .42 2.76C.222 3.268.087 3.85.048 4.7.01 5.555 0 5.827 0 8.001c0 2.172.01 2.444.048 3.297.04.852.174 1.433.372 1.942.205.526.478.972.923 1.417.444.445.89.719 1.416.923.51.198 1.09.333 1.942.372C5.555 15.99 5.827 16 8 16s2.444-.01 3.298-.048c.851-.04 1.434-.174 1.943-.372a3.9 3.9 0 0 0 1.416-.923c.445-.445.718-.891.923-1.417.197-.509.332-1.09.372-1.942C15.99 10.445 16 10.173 16 8s-.01-2.445-.048-3.299c-.04-.851-.175-1.433-.372-1.941a3.9 3.9 0 0 0-.923-1.417A3.9 3.9 0 0 0 13.24.42c-.51-.198-1.092-.333-1.943-.372C10.443.01 10.172 0 7.998 0zm-.717 1.442h.718c2.136 0 2.389.007 3.232.046.78.035 1.204.166 1.486.275.373.145.64.319.92.599s.453.546.598.92c.11.281.24.705.275 1.485.039.843.047 1.096.047 3.231s-.008 2.389-.047 3.232c-.035.78-.166 1.203-.275 1.485a2.5 2.5 0 0 1-.599.919c-.28.28-.546.453-.92.598-.28.11-.704.24-1.485.276-.843.038-1.096.047-3.232.047s-2.39-.009-3.233-.047c-.78-.036-1.203-.166-1.485-.276a2.5 2.5 0 0 1-.92-.598 2.5 2.5 0 0 1-.6-.92c-.109-.281-.24-.705-.275-1.485-.038-.843-.046-1.096-.046-3.233s.008-2.388.046-3.231c.036-.78.166-1.204.276-1.486.145-.373.319-.64.599-.92s.546-.453.92-.598c.282-.11.705-.24 1.485-.276.738-.034 1.024-.044 2.515-.045zm4.988 1.328a.96.96 0 1 0 0 1.92.96.96 0 0 0 0-1.92m-4.27 1.122a4.109 4.109 0 1 0 0 8.217 4.109 4.109 0 0 0 0-8.217m0 1.441a2.667 2.667 0 1 1 0 5.334 2.667 2.667 0 0 1 0-5.334"/>
</svg>